<svg fill="#000000" xmlns="http://www.w3.org/2000/svg" viewBox="0 0 80 80" width="80px" height="80px"><path d="M 39.855469 12 C 35.953125 12 32.488281 13.265625 29.988281 15.546875 C 29.46875 16.023438 29 16.554688 28.570313 17.113281 C 27.554688 16.492188 26.167969 16 24.378906 16 C 21.191406 16 18.339844 17.039063 16.28125 18.925781 C 14.226563 20.816406 13 23.546875 13 26.738281 C 13 28.816406 13.527344 32.578125 13.816406 34.652344 C 13.359375 35.042969 13 35.542969 13 36.199219 C 13 36.746094 13.152344 37.105469 13.265625 37.472656 C 13.324219 37.660156 13.378906 37.824219 13.410156 37.945313 C 13.445313 38.066406 13.441406 38.195313 13.441406 38 C 13.441406 38.972656 14.210938 39.617188 15.097656 39.828125 C 15.328125 42.445313 16.585938 44.75 18.5 46.332031 L 18.5 50.296875 C 17.96875 50.472656 15.144531 51.378906 11.765625 53.050781 C 9.921875 53.960938 8.0625 55.03125 6.609375 56.25 C 5.15625 57.464844 4 58.878906 4 60.597656 L 4 64 L 16 64 L 16 68 L 64 68 L 64 64 L 76 64 L 76 60.597656 C 76 58.878906 74.84375 57.464844 73.390625 56.25 C 71.9375 55.03125 70.078125 53.960938 68.234375 53.050781 C 64.855469 51.378906 62.03125 50.472656 61.5 50.296875 L 61.5 46.332031 C 63.414063 44.75 64.671875 42.445313 64.902344 39.828125 C 65.789063 39.617188 66.558594 38.972656 66.558594 38 C 66.558594 38.195313 66.554688 38.066406 66.589844 37.945313 C 66.621094 37.824219 66.675781 37.660156 66.734375 37.472656 C 66.847656 37.105469 67 36.746094 67 36.199219 C 67 35.542969 66.636719 35.042969 66.179688 34.652344 C 66.472656 32.550781 67 28.726563 67 26.738281 C 67 24.105469 66.257813 22.152344 65.105469 20.863281 C 64.089844 19.738281 62.789063 19.238281 61.53125 19.109375 C 61.355469 18.792969 61.199219 18.394531 60.4375 17.742188 C 59.414063 16.859375 57.742188 16 55.378906 16 C 53.589844 16 51.921875 16.34375 50.421875 16.964844 C 49.550781 16.464844 48.601563 16.21875 47.671875 16.125 C 47.433594 15.671875 47.042969 15.019531 46.234375 14.265625 C 44.996094 13.117188 42.925781 12 39.855469 12 Z M 39.855469 14 C 39.894531 14 39.933594 14.003906 39.972656 14.003906 C 39.433594 14.019531 39 14.457031 39 15 C 39 15.550781 39.449219 16 40 16 C 40.550781 16 41 15.550781 41 15 C 41 14.460938 40.570313 14.03125 40.039063 14.007813 C 42.519531 14.050781 43.980469 14.902344 44.875 15.734375 C 45.789063 16.582031 46.0625 17.34375 46.0625 17.34375 L 46.300781 18 L 47 18 C 47.34375 18 47.683594 18.046875 48.023438 18.117188 C 48.085938 18.609375 48.488281 19 49 19 C 49.230469 19 49.429688 18.910156 49.597656 18.78125 C 49.855469 18.957031 50.101563 19.164063 50.328125 19.414063 C 50.613281 19.726563 50.875 20.113281 51.109375 20.5625 C 51.042969 20.699219 51 20.839844 51 21 C 51 21.417969 51.261719 21.777344 51.625 21.925781 C 51.855469 22.769531 52 23.773438 52 25 C 52 25.269531 51.96875 25.671875 51.953125 26.011719 C 51.421875 26.035156 51 26.464844 51 27 C 51 27.488281 51.355469 27.875 51.816406 27.964844 C 51.679688 29.523438 51.511719 30.925781 51.34375 32.261719 C 51.136719 32.441406 51 32.703125 51 33 C 51 33.207031 51.078125 33.386719 51.1875 33.546875 C 51.167969 33.667969 51.140625 33.914063 51.125 34.019531 L 51.027344 34.75 L 51.691406 35.0625 C 51.890625 35.152344 52 35.3125 52 35.5 C 52 35.515625 51.90625 36.007813 51.78125 36.4375 C 51.714844 36.65625 51.652344 36.871094 51.59375 37.074219 C 51.539063 37.277344 51.480469 37.414063 51.480469 37.75 C 51.480469 37.875 51.378906 38 51.175781 38 L 49 38 L 49 39.375 C 49 39.941406 48.929688 40.496094 48.828125 41.03125 C 48.363281 41.117188 48 41.507813 48 42 C 48 42.292969 48.132813 42.554688 48.335938 42.734375 C 48 43.558594 47.550781 44.320313 47 45 C 47 44.449219 46.550781 44 46 44 C 45.449219 44 45 44.449219 45 45 C 45 45.550781 45.449219 46 46 46 C 46.027344 46 46.046875 45.988281 46.074219 45.984375 C 45.855469 46.183594 45.636719 46.378906 45.398438 46.554688 L 45 46.855469 L 45 52.714844 L 45.675781 52.945313 C 45.675781 52.945313 46.640625 53.285156 48.03125 53.839844 C 48.023438 53.894531 48 53.941406 48 54 C 48 54.550781 48.449219 55 49 55 C 49.332031 55 49.613281 54.828125 49.796875 54.578125 C 51.105469 55.140625 52.535156 55.78125 54.035156 56.566406 C 56.117188 57.660156 58.1875 58.941406 59.679688 60.265625 C 61.171875 61.59375 62 62.914063 62 64 L 62 66 C 62 65.449219 61.550781 65 61 65 C 60.449219 65 60 65.449219 60 66 L 56 66 C 56 65.449219 55.550781 65 55 65 C 54.449219 65 54 65.449219 54 66 L 50 66 C 50 65.449219 49.550781 65 49 65 C 48.449219 65 48 65.449219 48 66 L 44 66 C 44 65.449219 43.550781 65 43 65 C 42.449219 65 42 65.449219 42 66 L 38 66 C 38 65.449219 37.550781 65 37 65 C 36.449219 65 36 65.449219 36 66 L 32 66 C 32 65.449219 31.550781 65 31 65 C 30.449219 65 30 65.449219 30 66 L 26 66 C 26 65.449219 25.550781 65 25 65 C 24.449219 65 24 65.449219 24 66 L 20 66 C 20 65.449219 19.550781 65 19 65 C 18.449219 65 18 65.449219 18 66 L 18 64 C 18 62.914063 18.828125 61.59375 20.320313 60.265625 C 21.8125 58.941406 23.882813 57.660156 25.964844 56.566406 C 27.464844 55.78125 28.894531 55.140625 30.203125 54.578125 C 30.386719 54.828125 30.667969 55 31 55 C 31.550781 55 32 54.550781 32 54 C 32 53.941406 31.976563 53.894531 31.96875 53.839844 C 33.359375 53.285156 34.324219 52.945313 34.324219 52.945313 L 35 52.714844 L 35 46.859375 L 34.601563 46.558594 C 34.363281 46.378906 34.140625 46.183594 33.921875 45.984375 C 33.949219 45.988281 33.972656 46 34 46 C 34.550781 46 35 45.550781 35 45 C 35 44.449219 34.550781 44 34 44 C 33.449219 44 33 44.449219 33 45 C 32.449219 44.320313 32 43.558594 31.664063 42.734375 C 31.867188 42.554688 32 42.292969 32 42 C 32 41.507813 31.636719 41.117188 31.171875 41.03125 C 31.070313 40.492188 31 39.941406 31 39.375 L 31 38 L 28.824219 38 C 28.621094 38 28.519531 37.875 28.519531 37.75 C 28.519531 37.414063 28.460938 37.277344 28.40625 37.074219 C 28.347656 36.871094 28.285156 36.65625 28.21875 36.4375 C 28.09375 36.007813 28 35.515625 28 35.5 C 28 35.316406 28.109375 35.152344 28.304688 35.0625 L 28.96875 34.75 L 28.871094 34.019531 C 28.855469 33.917969 28.828125 33.667969 28.8125 33.546875 C 28.921875 33.390625 29 33.207031 29 33 C 29 32.703125 28.863281 32.441406 28.65625 32.257813 C 28.484375 30.933594 28.316406 29.539063 28.175781 27.964844 C 28.640625 27.878906 29 27.488281 29 27 C 29 26.464844 28.574219 26.035156 28.046875 26.011719 C 28.03125 25.671875 28 25.28125 28 25 C 28 23.894531 28.144531 22.871094 28.402344 21.914063 C 28.753906 21.757813 29 21.410156 29 21 C 29 20.824219 28.941406 20.667969 28.863281 20.527344 C 29.1875 19.757813 29.601563 19.050781 30.089844 18.40625 C 30.246094 18.753906 30.59375 19 31 19 C 31.550781 19 32 18.550781 32 18 C 32 17.554688 31.703125 17.1875 31.296875 17.0625 C 31.3125 17.046875 31.324219 17.035156 31.339844 17.019531 C 31.910156 16.5 32.554688 16.042969 33.25 15.644531 C 33.433594 15.859375 33.695313 16 34 16 C 34.550781 16 35 15.550781 35 15 C 35 14.941406 34.976563 14.894531 34.96875 14.839844 C 36.429688 14.296875 38.074219 14 39.855469 14 Z M 37 17 C 36.449219 17 36 17.449219 36 18 C 36 18.550781 36.449219 19 37 19 C 37.550781 19 38 18.550781 38 18 C 38 17.449219 37.550781 17 37 17 Z M 43 17 C 42.449219 17 42 17.449219 42 18 C 42 18.550781 42.449219 19 43 19 C 43.550781 19 44 18.550781 44 18 C 44 17.449219 43.550781 17 43 17 Z M 24.378906 18 C 25.792969 18 26.78125 18.355469 27.496094 18.792969 C 26.539063 20.597656 26 22.695313 26 25 C 26 27.558594 26.554688 31.695313 26.839844 33.78125 C 26.367188 34.230469 26 34.796875 26 35.5 C 26 36.089844 26.167969 36.546875 26.300781 37 C 26.367188 37.230469 26.433594 37.441406 26.472656 37.597656 C 26.515625 37.753906 26.519531 37.910156 26.519531 37.75 C 26.519531 39.003906 27.585938 40 28.824219 40 L 29.078125 40 C 29.257813 43.128906 30.734375 45.894531 33 47.78125 L 33 51.3125 C 32.113281 51.625 28.824219 52.8125 25.035156 54.796875 C 22.867188 55.933594 20.6875 57.265625 18.992188 58.769531 C 17.890625 59.75 16.964844 60.820313 16.445313 62 L 6 62 L 6 60.597656 C 6 59.851563 6.644531 58.828125 7.894531 57.78125 C 9.144531 56.734375 10.890625 55.714844 12.652344 54.84375 C 16.113281 53.132813 19.484375 52.039063 19.601563 52 L 20.5 52 L 20.5 45.394531 L 20.089844 45.097656 C 18.21875 43.726563 17 41.523438 17 39.011719 L 17 38 L 15.546875 38 C 15.425781 38 15.441406 37.957031 15.441406 38 C 15.441406 37.667969 15.382813 37.5625 15.332031 37.390625 C 15.285156 37.222656 15.230469 37.050781 15.175781 36.878906 C 15.070313 36.539063 15 36.136719 15 36.199219 C 15 36.152344 15.027344 36.082031 15.1875 36.03125 L 15.972656 35.765625 L 15.859375 34.941406 C 15.585938 33.046875 15 28.574219 15 26.738281 C 15 24.050781 15.988281 21.914063 17.636719 20.402344 C 19.28125 18.886719 21.621094 18 24.378906 18 Z M 55.378906 18 C 57.273438 18 58.414063 18.640625 59.136719 19.257813 C 59.855469 19.875 60.089844 20.414063 60.089844 20.414063 L 60.355469 21 L 61 21 C 61.875 21 62.84375 21.34375 63.613281 22.203125 C 64.386719 23.058594 65 24.476563 65 26.738281 C 65 28.453125 64.410156 33.023438 64.140625 34.945313 L 64.027344 35.765625 L 64.8125 36.03125 C 64.972656 36.085938 65 36.152344 65 36.199219 C 65 36.136719 64.929688 36.539063 64.824219 36.878906 C 64.769531 37.050781 64.714844 37.222656 64.667969 37.390625 C 64.617188 37.5625 64.558594 37.667969 64.558594 38 C 64.558594 37.957031 64.574219 38 64.453125 38 L 63 38 L 63 39.011719 C 63 41.523438 61.78125 43.726563 59.910156 45.097656 L 59.5 45.394531 L 59.5 52 L 60.398438 52 C 60.515625 52.039063 63.886719 53.132813 67.347656 54.84375 C 69.109375 55.714844 70.855469 56.734375 72.105469 57.78125 C 73.355469 58.828125 74 59.851563 74 60.597656 L 74 62 L 63.554688 62 C 63.035156 60.820313 62.109375 59.75 61.007813 58.769531 C 59.3125 57.265625 57.132813 55.933594 54.964844 54.796875 C 51.175781 52.8125 47.886719 51.625 47 51.3125 L 47 47.777344 C 49.265625 45.890625 50.742188 43.128906 50.921875 40 L 51.175781 40 C 52.414063 40 53.480469 39.003906 53.480469 37.75 C 53.480469 37.910156 53.484375 37.753906 53.527344 37.597656 C 53.566406 37.441406 53.632813 37.230469 53.699219 37 C 53.832031 36.546875 54 36.089844 54 35.5 C 54 34.792969 53.632813 34.226563 53.15625 33.777344 C 53.441406 31.660156 54 27.4375 54 25 C 54 22.085938 53.285156 19.941406 52.136719 18.46875 C 53.132813 18.171875 54.214844 18 55.378906 18 Z M 34 20 C 33.449219 20 33 20.449219 33 21 C 33 21.550781 33.449219 22 34 22 C 34.550781 22 35 21.550781 35 21 C 35 20.449219 34.550781 20 34 20 Z M 40 20 C 39.449219 20 39 20.449219 39 21 C 39 21.550781 39.449219 22 40 22 C 40.550781 22 41 21.550781 41 21 C 41 20.449219 40.550781 20 40 20 Z M 46 20 C 45.449219 20 45 20.449219 45 21 C 45 21.550781 45.449219 22 46 22 C 46.550781 22 47 21.550781 47 21 C 47 20.449219 46.550781 20 46 20 Z M 31 23 C 30.449219 23 30 23.449219 30 24 C 30 24.550781 30.449219 25 31 25 C 31.550781 25 32 24.550781 32 24 C 32 23.449219 31.550781 23 31 23 Z M 37 23 C 36.449219 23 36 23.449219 36 24 C 36 24.550781 36.449219 25 37 25 C 37.550781 25 38 24.550781 38 24 C 38 23.449219 37.550781 23 37 23 Z M 43 23 C 42.449219 23 42 23.449219 42 24 C 42 24.550781 42.449219 25 43 25 C 43.550781 25 44 24.550781 44 24 C 44 23.449219 43.550781 23 43 23 Z M 49 23 C 48.449219 23 48 23.449219 48 24 C 48 24.550781 48.449219 25 49 25 C 49.550781 25 50 24.550781 50 24 C 50 23.449219 49.550781 23 49 23 Z M 34 26 C 33.449219 26 33 26.449219 33 27 C 33 27.550781 33.449219 28 34 28 C 34.550781 28 35 27.550781 35 27 C 35 26.449219 34.550781 26 34 26 Z M 40 26 C 39.449219 26 39 26.449219 39 27 C 39 27.550781 39.449219 28 40 28 C 40.550781 28 41 27.550781 41 27 C 41 26.449219 40.550781 26 40 26 Z M 46 26 C 45.449219 26 45 26.449219 45 27 C 45 27.550781 45.449219 28 46 28 C 46.550781 28 47 27.550781 47 27 C 47 26.449219 46.550781 26 46 26 Z M 31 29 C 30.449219 29 30 29.449219 30 30 C 30 30.550781 30.449219 31 31 31 C 31.550781 31 32 30.550781 32 30 C 32 29.449219 31.550781 29 31 29 Z M 37 29 C 36.449219 29 36 29.449219 36 30 C 36 30.550781 36.449219 31 37 31 C 37.550781 31 38 30.550781 38 30 C 38 29.449219 37.550781 29 37 29 Z M 43 29 C 42.449219 29 42 29.449219 42 30 C 42 30.550781 42.449219 31 43 31 C 43.550781 31 44 30.550781 44 30 C 44 29.449219 43.550781 29 43 29 Z M 49 29 C 48.449219 29 48 29.449219 48 30 C 48 30.550781 48.449219 31 49 31 C 49.550781 31 50 30.550781 50 30 C 50 29.449219 49.550781 29 49 29 Z M 34 32 C 33.449219 32 33 32.449219 33 33 C 33 33.550781 33.449219 34 34 34 C 34.550781 34 35 33.550781 35 33 C 35 32.449219 34.550781 32 34 32 Z M 40 32 C 39.449219 32 39 32.449219 39 33 C 39 33.550781 39.449219 34 40 34 C 40.550781 34 41 33.550781 41 33 C 41 32.449219 40.550781 32 40 32 Z M 46 32 C 45.449219 32 45 32.449219 45 33 C 45 33.550781 45.449219 34 46 34 C 46.550781 34 47 33.550781 47 33 C 47 32.449219 46.550781 32 46 32 Z M 31 35 C 30.449219 35 30 35.449219 30 36 C 30 36.550781 30.449219 37 31 37 C 31.550781 37 32 36.550781 32 36 C 32 35.449219 31.550781 35 31 35 Z M 37 35 C 36.449219 35 36 35.449219 36 36 C 36 36.550781 36.449219 37 37 37 C 37.550781 37 38 36.550781 38 36 C 38 35.449219 37.550781 35 37 35 Z M 43 35 C 42.449219 35 42 35.449219 42 36 C 42 36.550781 42.449219 37 43 37 C 43.550781 37 44 36.550781 44 36 C 44 35.449219 43.550781 35 43 35 Z M 49 35 C 48.449219 35 48 35.449219 48 36 C 48 36.550781 48.449219 37 49 37 C 49.550781 37 50 36.550781 50 36 C 50 35.449219 49.550781 35 49 35 Z M 34 38 C 33.449219 38 33 38.449219 33 39 C 33 39.550781 33.449219 40 34 40 C 34.550781 40 35 39.550781 35 39 C 35 38.449219 34.550781 38 34 38 Z M 40 38 C 39.449219 38 39 38.449219 39 39 C 39 39.550781 39.449219 40 40 40 C 40.550781 40 41 39.550781 41 39 C 41 38.449219 40.550781 38 40 38 Z M 46 38 C 45.449219 38 45 38.449219 45 39 C 45 39.550781 45.449219 40 46 40 C 46.550781 40 47 39.550781 47 39 C 47 38.449219 46.550781 38 46 38 Z M 37 41 C 36.449219 41 36 41.449219 36 42 C 36 42.550781 36.449219 43 37 43 C 37.550781 43 38 42.550781 38 42 C 38 41.449219 37.550781 41 37 41 Z M 43 41 C 42.449219 41 42 41.449219 42 42 C 42 42.550781 42.449219 43 43 43 C 43.550781 43 44 42.550781 44 42 C 44 41.449219 43.550781 41 43 41 Z M 40 44 C 39.449219 44 39 44.449219 39 45 C 39 45.550781 39.449219 46 40 46 C 40.550781 46 41 45.550781 41 45 C 41 44.449219 40.550781 44 40 44 Z M 37 47 C 36.449219 47 36 47.449219 36 48 C 36 48.550781 36.449219 49 37 49 C 37.550781 49 38 48.550781 38 48 C 38 47.449219 37.550781 47 37 47 Z M 43 47 C 42.449219 47 42 47.449219 42 48 C 42 48.550781 42.449219 49 43 49 C 43.550781 49 44 48.550781 44 48 C 44 47.449219 43.550781 47 43 47 Z M 40 50 C 39.449219 50 39 50.449219 39 51 C 39 51.550781 39.449219 52 40 52 C 40.550781 52 41 51.550781 41 51 C 41 50.449219 40.550781 50 40 50 Z M 37 53 C 36.449219 53 36 53.449219 36 54 C 36 54.550781 36.449219 55 37 55 C 37.550781 55 38 54.550781 38 54 C 38 53.449219 37.550781 53 37 53 Z M 43 53 C 42.449219 53 42 53.449219 42 54 C 42 54.550781 42.449219 55 43 55 C 43.550781 55 44 54.550781 44 54 C 44 53.449219 43.550781 53 43 53 Z M 28 56 C 27.449219 56 27 56.449219 27 57 C 27 57.550781 27.449219 58 28 58 C 28.550781 58 29 57.550781 29 57 C 29 56.449219 28.550781 56 28 56 Z M 34 56 C 33.449219 56 33 56.449219 33 57 C 33 57.550781 33.449219 58 34 58 C 34.550781 58 35 57.550781 35 57 C 35 56.449219 34.550781 56 34 56 Z M 40 56 C 39.449219 56 39 56.449219 39 57 C 39 57.550781 39.449219 58 40 58 C 40.550781 58 41 57.550781 41 57 C 41 56.449219 40.550781 56 40 56 Z M 46 56 C 45.449219 56 45 56.449219 45 57 C 45 57.550781 45.449219 58 46 58 C 46.550781 58 47 57.550781 47 57 C 47 56.449219 46.550781 56 46 56 Z M 52 56 C 51.449219 56 51 56.449219 51 57 C 51 57.550781 51.449219 58 52 58 C 52.550781 58 53 57.550781 53 57 C 53 56.449219 52.550781 56 52 56 Z M 25 59 C 24.449219 59 24 59.449219 24 60 C 24 60.550781 24.449219 61 25 61 C 25.550781 61 26 60.550781 26 60 C 26 59.449219 25.550781 59 25 59 Z M 31 59 C 30.449219 59 30 59.449219 30 60 C 30 60.550781 30.449219 61 31 61 C 31.550781 61 32 60.550781 32 60 C 32 59.449219 31.550781 59 31 59 Z M 37 59 C 36.449219 59 36 59.449219 36 60 C 36 60.550781 36.449219 61 37 61 C 37.550781 61 38 60.550781 38 60 C 38 59.449219 37.550781 59 37 59 Z M 43 59 C 42.449219 59 42 59.449219 42 60 C 42 60.550781 42.449219 61 43 61 C 43.550781 61 44 60.550781 44 60 C 44 59.449219 43.550781 59 43 59 Z M 49 59 C 48.449219 59 48 59.449219 48 60 C 48 60.550781 48.449219 61 49 61 C 49.550781 61 50 60.550781 50 60 C 50 59.449219 49.550781 59 49 59 Z M 55 59 C 54.449219 59 54 59.449219 54 60 C 54 60.550781 54.449219 61 55 61 C 55.550781 61 56 60.550781 56 60 C 56 59.449219 55.550781 59 55 59 Z M 22 62 C 21.449219 62 21 62.449219 21 63 C 21 63.550781 21.449219 64 22 64 C 22.550781 64 23 63.550781 23 63 C 23 62.449219 22.550781 62 22 62 Z M 28 62 C 27.449219 62 27 62.449219 27 63 C 27 63.550781 27.449219 64 28 64 C 28.550781 64 29 63.550781 29 63 C 29 62.449219 28.550781 62 28 62 Z M 34 62 C 33.449219 62 33 62.449219 33 63 C 33 63.550781 33.449219 64 34 64 C 34.550781 64 35 63.550781 35 63 C 35 62.449219 34.550781 62 34 62 Z M 40 62 C 39.449219 62 39 62.449219 39 63 C 39 63.550781 39.449219 64 40 64 C 40.550781 64 41 63.550781 41 63 C 41 62.449219 40.550781 62 40 62 Z M 46 62 C 45.449219 62 45 62.449219 45 63 C 45 63.550781 45.449219 64 46 64 C 46.550781 64 47 63.550781 47 63 C 47 62.449219 46.550781 62 46 62 Z M 52 62 C 51.449219 62 51 62.449219 51 63 C 51 63.550781 51.449219 64 52 64 C 52.550781 64 53 63.550781 53 63 C 53 62.449219 52.550781 62 52 62 Z M 58 62 C 57.449219 62 57 62.449219 57 63 C 57 63.550781 57.449219 64 58 64 C 58.550781 64 59 63.550781 59 63 C 59 62.449219 58.550781 62 58 62 Z"/></svg>