<svg fill="#000000" xmlns="http://www.w3.org/2000/svg" viewBox="0 0 80 80" width="80px" height="80px"><path d="M 40 5 C 37.800781 5 36 6.800781 36 9 L 36 10.457031 C 29.308594 11.960938 23.988281 17.160156 22.4375 24.023438 L 12.707031 14.292969 L 11.292969 15.707031 L 67.292969 71.707031 L 68.707031 70.292969 L 65.414063 67 L 69 67 L 69 61 L 68 61 C 65.660156 61 63.707031 59.246094 63.457031 56.921875 L 60.378906 28.464844 C 60.199219 26.769531 59.183594 25.320313 57.691406 24.558594 C 56.304688 17.429688 50.867188 12 44 10.457031 L 44 9 C 44 6.800781 42.199219 5 40 5 Z M 40 7 C 41.117188 7 42 7.882813 42 9 L 42 10.121094 C 41.339844 10.050781 40.675781 10 40 10 C 39.324219 10 38.660156 10.050781 38 10.121094 L 38 9 C 38 7.882813 38.882813 7 40 7 Z M 40 12 C 47.886719 12 54.539063 17.644531 55.8125 25.417969 L 55.90625 25.988281 L 56.453125 26.191406 C 57.527344 26.589844 58.269531 27.542969 58.390625 28.675781 L 61.46875 57.136719 C 61.503906 57.457031 61.570313 57.761719 61.648438 58.0625 C 61.257813 58.210938 61 58.582031 61 59 C 61 59.550781 61.449219 60 62 60 C 62.152344 60 62.300781 59.964844 62.4375 59.898438 C 63.433594 61.496094 65.078125 62.632813 67 62.921875 L 67 65 L 63.414063 65 L 58.347656 59.9375 C 58.742188 59.789063 59 59.417969 59 59 C 59 58.449219 58.550781 58 58 58 C 57.582031 58 57.210938 58.257813 57.0625 58.652344 L 24.136719 25.722656 L 24.1875 25.417969 C 25.460938 17.644531 32.113281 12 40 12 Z M 26 24 C 25.449219 24 25 24.449219 25 25 C 25 25.550781 25.449219 26 26 26 C 26.550781 26 27 25.550781 27 25 C 27 24.449219 26.550781 24 26 24 Z M 30 24 C 29.449219 24 29 24.449219 29 25 C 29 25.550781 29.449219 26 30 26 C 30.550781 26 31 25.550781 31 25 C 31 24.449219 30.550781 24 30 24 Z M 34 24 C 33.449219 24 33 24.449219 33 25 C 33 25.550781 33.449219 26 34 26 C 34.550781 26 35 25.550781 35 25 C 35 24.449219 34.550781 24 34 24 Z M 38 24 C 37.449219 24 37 24.449219 37 25 C 37 25.550781 37.449219 26 38 26 C 38.550781 26 39 25.550781 39 25 C 39 24.449219 38.550781 24 38 24 Z M 42 24 C 41.449219 24 41 24.449219 41 25 C 41 25.550781 41.449219 26 42 26 C 42.550781 26 43 25.550781 43 25 C 43 24.449219 42.550781 24 42 24 Z M 46 24 C 45.449219 24 45 24.449219 45 25 C 45 25.550781 45.449219 26 46 26 C 46.550781 26 47 25.550781 47 25 C 47 24.449219 46.550781 24 46 24 Z M 50 24 C 49.449219 24 49 24.449219 49 25 C 49 25.550781 49.449219 26 50 26 C 50.550781 26 51 25.550781 51 25 C 51 24.449219 50.550781 24 50 24 Z M 54 24 C 53.449219 24 53 24.449219 53 25 C 53 25.550781 53.449219 26 54 26 C 54.550781 26 55 25.550781 55 25 C 55 24.449219 54.550781 24 54 24 Z M 19.964844 27.121094 C 19.792969 27.542969 19.671875 27.992188 19.621094 28.464844 L 16.542969 56.921875 C 16.292969 59.246094 14.339844 61 12 61 L 11 61 L 11 67 L 33 67 C 33 70.855469 36.144531 74 40 74 C 43.855469 74 47 70.855469 47 67 L 59.84375 67 L 57.84375 65 L 13 65 L 13 62.925781 C 14.921875 62.632813 16.566406 61.496094 17.5625 59.898438 C 17.699219 59.964844 17.847656 60 18 60 C 18.550781 60 19 59.550781 19 59 C 19 58.582031 18.742188 58.210938 18.351563 58.0625 C 18.429688 57.761719 18.496094 57.457031 18.53125 57.136719 L 21.597656 28.757813 Z M 22 58 C 21.449219 58 21 58.449219 21 59 C 21 59.550781 21.449219 60 22 60 C 22.550781 60 23 59.550781 23 59 C 23 58.449219 22.550781 58 22 58 Z M 26 58 C 25.449219 58 25 58.449219 25 59 C 25 59.550781 25.449219 60 26 60 C 26.550781 60 27 59.550781 27 59 C 27 58.449219 26.550781 58 26 58 Z M 30 58 C 29.449219 58 29 58.449219 29 59 C 29 59.550781 29.449219 60 30 60 C 30.550781 60 31 59.550781 31 59 C 31 58.449219 30.550781 58 30 58 Z M 34 58 C 33.449219 58 33 58.449219 33 59 C 33 59.550781 33.449219 60 34 60 C 34.550781 60 35 59.550781 35 59 C 35 58.449219 34.550781 58 34 58 Z M 38 58 C 37.449219 58 37 58.449219 37 59 C 37 59.550781 37.449219 60 38 60 C 38.550781 60 39 59.550781 39 59 C 39 58.449219 38.550781 58 38 58 Z M 42 58 C 41.449219 58 41 58.449219 41 59 C 41 59.550781 41.449219 60 42 60 C 42.550781 60 43 59.550781 43 59 C 43 58.449219 42.550781 58 42 58 Z M 46 58 C 45.449219 58 45 58.449219 45 59 C 45 59.550781 45.449219 60 46 60 C 46.550781 60 47 59.550781 47 59 C 47 58.449219 46.550781 58 46 58 Z M 50 58 C 49.449219 58 49 58.449219 49 59 C 49 59.550781 49.449219 60 50 60 C 50.550781 60 51 59.550781 51 59 C 51 58.449219 50.550781 58 50 58 Z M 35 67 L 45 67 C 45 69.773438 42.773438 72 40 72 C 37.226563 72 35 69.773438 35 67 Z"/></svg>