<svg xmlns="http://www.w3.org/2000/svg" viewBox="0 0 24 24"><path d="M 3.7070312 2.2929688 L 2.2929688 3.7070312 L 5.21875 6.6328125 C 3.8012428 7.3531557 2.5064359 8.2795388 1.3925781 9.3925781 L 3.3359375 11.335938 C 4.5263465 10.267747 5.9190183 9.4295979 7.4394531 8.8535156 L 9.015625 10.429688 C 7.4183189 10.883024 5.9633215 11.679318 4.7480469 12.748047 L 6.8691406 14.869141 C 8.1647514 13.784032 9.8080361 13.106447 11.603516 13.017578 L 13.90625 15.320312 C 13.30674 15.117271 12.667627 15 12 15 C 10.6 15 9.3149688 15.486969 8.2929688 16.292969 L 12 20 L 15.292969 16.707031 L 20.292969 21.707031 L 21.707031 20.292969 L 3.7070312 2.2929688 z M 12 5 C 11.147 5 10.316953 5.0876094 9.5019531 5.2246094 L 12.289062 8.0136719 C 15.504062 8.0856719 18.429062 9.3299375 20.664062 11.335938 L 22.605469 9.3945312 C 19.891469 6.6795313 16.142 5 12 5 z M 14.601562 10.324219 L 18.138672 13.861328 L 19.25 12.75 C 17.938 11.595 16.350563 10.753219 14.601562 10.324219 z"></path></svg>
