<svg xmlns="http://www.w3.org/2000/svg" id="star" width="24.119" height="23" viewBox="0 0 24.119 23">
    <defs>
        <style>
            .cls-1{fill:#84bd00}
        </style>
    </defs>
    <path id="Path_34" d="M12.629.831L15.7 8.092l7.854.675a.619.619 0 0 1 .346 1.084l-5.957 5.161 1.785 7.678a.618.618 0 0 1-.922.67l-6.746-4.07-6.75 4.071a.619.619 0 0 1-.922-.67l1.785-7.678L.214 9.85a.619.619 0 0 1 .353-1.085l7.854-.675L11.489.831a.618.618 0 0 1 1.14 0z" class="cls-1" data-name="Path 34" transform="translate(0 -.452)"/>
</svg>
