<svg xmlns="http://www.w3.org/2000/svg" width="11.683" height="10.922" viewBox="0 0 11.683 10.922">
    <defs>
        <style>
            .cls-1{fill:#84bd00}
        </style>
    </defs>
    <g id="UHK_events" transform="translate(95.999 -11)">
        <path id="Subtraction_1" d="M-962.394-213.449h-9.348a1.15 1.15 0 0 1-1.167-1.129v-7.593a1.143 1.143 0 0 1 1.118-1.12h.817v-.544a.547.547 0 0 1 .555-.536.546.546 0 0 1 .554.536v.544h5.585v-.544a.546.546 0 0 1 .554-.536.547.547 0 0 1 .555.536v.544h.778a1.149 1.149 0 0 1 1.165 1.12v7.593a1.1 1.1 0 0 1-.345.8 1.2 1.2 0 0 1-.821.329zm-3.6-5.554a1 1 0 0 0-1 1v1.661a1 1 0 0 0 1 1h1.791a1 1 0 0 0 1-1V-218a1 1 0 0 0-1-1z" class="cls-1" transform="translate(876.911 235.372)"/>
    </g>
</svg>
