<svg xmlns="http://www.w3.org/2000/svg" width="54.489" height="52.738" viewBox="0 0 54.489 52.738">
    <path d="M49.01 5.217h-3.583V2.589a2.59 2.59 0 0 0-5.179 0v2.628H14.203V2.589a2.59 2.59 0 1 0-5.179 0v2.628H5.217A5.445 5.445 0 0 0 0 10.624v36.669a5.445 5.445 0 0 0 5.445 5.445H49.01a5.445 5.445 0 0 0 5.483-5.445V10.624a5.445 5.445 0 0 0-5.483-5.407zm1.257 42.114a1.257 1.257 0 0 1-1.257 1.256H5.41a1.257 1.257 0 0 1-1.26-1.256V10.624a1.257 1.257 0 0 1 1.26-1.257h43.6a1.257 1.257 0 0 1 1.257 1.257z" />
    <rect width="10.776" height="10.776" rx="1" transform="translate(34.498 32.823)"/>
</svg>
